<svg width="29" height="29" fill="none" xmlns="http://www.w3.org/2000/svg">
  <g filter="url(#a)">
    <path d="M10.29.992c1.197 0 2.213.423 3.046 1.27.846.846 1.27 1.868 1.27 3.066V29h-2.891V5.074a1.38 1.38 0 0 0-.41-1.015 1.38 1.38 0 0 0-1.016-.41c-.404 0-.749.136-1.035.41a1.38 1.38 0 0 0-.41 1.015V29h-2.89V5.074a1.38 1.38 0 0 0-.411-1.015 1.38 1.38 0 0 0-1.016-.41c-.403 0-.748.136-1.035.41a1.38 1.38 0 0 0-.41 1.015V29H.192V5.328c0-1.198.423-2.22 1.269-3.066.846-.847 1.868-1.27 3.066-1.27 1.068 0 2.025.378 2.871 1.133C8.245 1.37 9.208.992 10.29.992ZM28.987 29V.992h2.89V29h-2.89ZM56.36.992c1.198 0 2.214.423 3.047 1.27.847.846 1.27 1.868 1.27 3.066V29h-2.89V5.074a1.38 1.38 0 0 0-.411-1.015 1.38 1.38 0 0 0-1.016-.41c-.403 0-.748.136-1.035.41a1.38 1.38 0 0 0-.41 1.015V29h-2.89V5.074a1.38 1.38 0 0 0-.41-1.015 1.38 1.38 0 0 0-1.016-.41c-.404 0-.749.136-1.035.41a1.38 1.38 0 0 0-.41 1.015V29h-2.891V5.328c0-1.198.423-2.22 1.27-3.066.846-.847 1.868-1.27 3.066-1.27 1.067 0 2.024.378 2.87 1.133.847-.755 1.81-1.133 2.891-1.133ZM75.06 29V.992h2.89V29h-2.89Zm23.035-15.313V.992h2.89V29h-2.89V16.324h-2.871V29h-2.891V.992h2.89v12.695h2.872Zm18.562-11.425c.847-.847 1.869-1.27 3.067-1.27 1.198 0 2.213.423 3.047 1.27.846.846 1.269 1.868 1.269 3.066v19.356c0 1.197-.423 2.22-1.269 3.066-.834.833-1.849 1.25-3.047 1.25-1.198 0-2.22-.417-3.067-1.25-.846-.846-1.269-1.869-1.269-3.066V5.328c0-1.198.423-2.22 1.269-3.066Zm4.492 22.656V5.074c0-.403-.136-.742-.41-1.015a1.378 1.378 0 0 0-1.015-.41c-.404 0-.749.136-1.035.41a1.378 1.378 0 0 0-.411 1.015v19.844c0 .404.137.749.411 1.035.286.274.631.41 1.035.41.403 0 .742-.136 1.015-.41.274-.286.41-.631.41-1.035Z" fill="#f2cb6c"/>
  </g>
  <defs>
    <filter id="a" x=".191" y=".992" width="123.848" height="32.008" filterUnits="userSpaceOnUse" color-interpolation-filters="sRGB">
      <feFlood flood-opacity="0" result="BackgroundImageFix"/>
      <feBlend in="SourceGraphic" in2="BackgroundImageFix" result="shape"/>
      <feColorMatrix in="SourceAlpha" values="0 0 0 0 0 0 0 0 0 0 0 0 0 0 0 0 0 0 127 0" result="hardAlpha"/>
      <feOffset dy="4"/>
      <feGaussianBlur stdDeviation="2"/>
      <feComposite in2="hardAlpha" operator="arithmetic" k2="-1" k3="1"/>
      <feColorMatrix values="0 0 0 0 0 0 0 0 0 0 0 0 0 0 0 0 0 0 0.25 0"/>
      <feBlend in2="shape" result="effect1_innerShadow_1_829"/>
    </filter>
  </defs>
</svg>
